<?xml version="1.0" encoding="UTF-8" standalone="no"?>
<!-- Created with Inkscape (http://www.inkscape.org/) -->

<svg
   width="69.093651mm"
   height="100.9818mm"
   viewBox="0 0 69.093651 100.9818"
   version="1.1"
   id="svg5"
   sodipodi:docname="french rooster with crox de lorraine.svg"
   inkscape:version="1.1 (c68e22c387, 2021-05-23)"
   xmlns:inkscape="http://www.inkscape.org/namespaces/inkscape"
   xmlns:sodipodi="http://sodipodi.sourceforge.net/DTD/sodipodi-0.dtd"
   xmlns="http://www.w3.org/2000/svg"
   xmlns:svg="http://www.w3.org/2000/svg">
  <sodipodi:namedview
     id="namedview7"
     pagecolor="#ffffff"
     bordercolor="#666666"
     borderopacity="1.0"
     inkscape:pageshadow="2"
     inkscape:pageopacity="0.0"
     inkscape:pagecheckerboard="0"
     inkscape:document-units="mm"
     showgrid="false"
     inkscape:zoom="1.0431611"
     inkscape:cx="-43.617425"
     inkscape:cy="184.53526"
     inkscape:window-width="1920"
     inkscape:window-height="991"
     inkscape:window-x="1911"
     inkscape:window-y="-9"
     inkscape:window-maximized="1"
     inkscape:current-layer="layer1" />
  <defs
     id="defs2" />
  <g
     inkscape:label="Layer 1"
     inkscape:groupmode="layer"
     id="layer1"
     transform="translate(-82.748113,-81.13959)">
    <g
       id="g5846"
       style="stroke:#ffffff;stroke-opacity:1;fill:#ff0000;fill-opacity:1;stroke-width:0.4;stroke-miterlimit:4;stroke-dasharray:none">
      <g
         id="g5130"
         transform="rotate(27.275114,113.31361,225.49026)"
         style="fill:#ff0000;fill-opacity:1;stroke:#ffffff;stroke-opacity:1;stroke-width:0.4;stroke-miterlimit:4;stroke-dasharray:none">
        <g
           id="svgg"
           transform="matrix(0.09155478,0,0,0.09155478,38.78577,80.132173)"
           style="fill:#ff0000;fill-opacity:1;stroke:#ffffff;stroke-width:4.36896904;stroke-miterlimit:4;stroke-dasharray:none;stroke-opacity:1">
          <path
             id="path0"
             d="m 187.97199,195.64495 v 56.6 h -57 -57.000002 v 54.8 54.8 h 57.000002 57 v 56.2 56.2 h -72.6 -72.600002 v 53.8 53.8 h 72.600002 72.6 v 104.6 104.6 h 54.8 54.8 v -104.6 -104.6 h 72.6 72.60004 v -53.8 -53.8 h -72.60004 -72.6 v -56.2 -56.2 h 58 58.00004 v -54.8 -54.8 h -58.00004 -58 v -56.6 -56.6 h -54.8 -54.8 v 56.6"
             stroke="none"
             fill="#848474"
             fill-rule="evenodd"
             style="fill:#ff0000;fill-opacity:1;stroke:#ffffff;stroke-width:4.36896904;stroke-miterlimit:4;stroke-dasharray:none;stroke-opacity:1" />
          <path
             id="path1"
             d=""
             stroke="none"
             fill="#888474"
             fill-rule="evenodd"
             style="fill:#ff0000;fill-opacity:1;stroke:#ffffff;stroke-width:4.36896904;stroke-miterlimit:4;stroke-dasharray:none;stroke-opacity:1" />
          <path
             id="path2"
             d=""
             stroke="none"
             fill="#888474"
             fill-rule="evenodd"
             style="fill:#ff0000;fill-opacity:1;stroke:#ffffff;stroke-width:4.36896904;stroke-miterlimit:4;stroke-dasharray:none;stroke-opacity:1" />
          <path
             id="path3"
             d=""
             stroke="none"
             fill="#888474"
             fill-rule="evenodd"
             style="fill:#ff0000;fill-opacity:1;stroke:#ffffff;stroke-width:4.36896904;stroke-miterlimit:4;stroke-dasharray:none;stroke-opacity:1" />
          <path
             id="path4"
             d=""
             stroke="none"
             fill="#888474"
             fill-rule="evenodd"
             style="fill:#ff0000;fill-opacity:1;stroke:#ffffff;stroke-width:4.36896904;stroke-miterlimit:4;stroke-dasharray:none;stroke-opacity:1" />
          <path
             id="path5"
             d=""
             stroke="none"
             fill="#888474"
             fill-rule="evenodd"
             style="fill:#ff0000;fill-opacity:1;stroke:#ffffff;stroke-width:4.36896904;stroke-miterlimit:4;stroke-dasharray:none;stroke-opacity:1" />
          <path
             id="path6"
             d=""
             stroke="none"
             fill="#888474"
             fill-rule="evenodd"
             style="fill:#ff0000;fill-opacity:1;stroke:#ffffff;stroke-width:4.36896904;stroke-miterlimit:4;stroke-dasharray:none;stroke-opacity:1" />
          <path
             id="path7"
             d=""
             stroke="none"
             fill="#888474"
             fill-rule="evenodd"
             style="fill:#ff0000;fill-opacity:1;stroke:#ffffff;stroke-width:4.36896904;stroke-miterlimit:4;stroke-dasharray:none;stroke-opacity:1" />
          <path
             id="path8"
             d=""
             stroke="none"
             fill="#888474"
             fill-rule="evenodd"
             style="fill:#ff0000;fill-opacity:1;stroke:#ffffff;stroke-width:4.36896904;stroke-miterlimit:4;stroke-dasharray:none;stroke-opacity:1" />
        </g>
      </g>
      <g
         id="g5118"
         style="stroke:#ffffff;stroke-opacity:1;fill:#ff0000;fill-opacity:1;stroke-width:0.4;stroke-miterlimit:4;stroke-dasharray:none">
        <path
           style="font-size:12px;fill:#ff0000;fill-opacity:1;fill-rule:evenodd;stroke:#ffffff;stroke-width:0.4;stroke-miterlimit:4;stroke-dasharray:none;stroke-opacity:1"
           d="m 109.08313,108.61868 c -0.0113,-0.001 -0.0193,0.004 -0.0331,0.008 -1.84866,0.52855 -1.74102,3.27727 -2.61276,3.24942 -0.44079,0.0649 -0.022,-1.36733 -0.40514,-2.02572 -0.17248,-0.20376 -1.03645,1.09145 -1.43867,1.77767 -0.28735,0.45422 -0.40382,0.79879 -0.23151,1.97611 -0.63214,-0.37087 -1.15071,-1.0783 -1.3808,-0.89297 -1.11099,1.57604 -2.05033,2.49107 -2.41432,3.84473 0.11487,1.05713 0.34975,1.33031 0.69453,1.71979 0.28752,0.22261 0.80698,0.17052 1.49655,-0.10749 0.80496,-0.50078 1.14956,-1.00779 1.20716,-2.00918 0.22958,-0.31522 0.45652,0.48665 0.68627,0.72761 0.53663,-0.33374 0.72884,-0.49904 1.32291,-0.77722 0.36399,-0.25965 2.56777,-0.78193 2.41433,0.33073 1.82979,0.2967 2.97058,-0.18847 4.28294,-0.89297 0.72831,-0.29675 1.56537,-1.8716 1.54616,-3.44785 -0.0192,-0.67683 -1.30228,-3.13489 -2.29857,-3.1998 -1.20684,-0.38931 -1.48888,2.39694 -2.75332,2.17454 -0.53814,-0.0359 0.26675,-2.42466 -0.0827,-2.45566 z m 36.48769,0.3638 c -2.24901,4.66782 -14.73975,10.75585 -17.31367,13.2209 2.76373,-1.12765 6.33745,-2.41491 11.86491,-1.18236 1.3003,-0.68175 5.36124,-3.09441 7.47448,-5.34954 -2.79058,0.7081 -6.55227,2.51832 -8.36745,2.12493 0.65015,-0.89161 5.69141,-3.20202 6.34173,-8.81393 z m -38.63743,7.53236 c -0.31683,-0.004 -0.74248,0.10378 -1.38907,0.40514 -0.67071,0.38948 -1.62758,1.22069 -2.24069,1.55443 0.44063,0.7047 1.56944,2.14722 2.12494,2.55488 0.65134,-0.96406 1.6459,-1.53965 2.12493,-2.05879 0.63214,-0.44521 1.3846,0.3856 1.9017,0.71934 1.41789,0.90866 1.91769,1.43564 2.64583,1.84381 -0.096,-2.18823 -1.1753,-4.48766 -3.34036,-4.50618 -0.94828,0.0129 -1.13025,-0.50397 -1.82728,-0.51263 z m -1.33946,1.31465 c 0.67054,-0.0556 0.37644,0.50366 0.64493,0.89297 0.22991,0.31538 -0.32936,0.60591 -0.69454,0.27285 -0.30536,-0.27886 -0.31437,-0.93387 0.0496,-1.16582 z m -3.0179,0.93431 c -1.10675,0.6357 -2.03706,1.15631 -2.22415,1.73632 1.02943,-0.26219 1.94679,-0.58098 2.97656,-0.84335 -0.32524,-0.2622 -0.36956,-0.51947 -0.75241,-0.89297 z m 5.55625,0.65319 c -2.98854,1.83579 -1.21138,1.7784 -4.20026,2.61276 -0.57453,0 -1.3821,-0.221 -2.76159,0.44648 -1.379652,0.66765 -2.062981,1.56049 -1.48828,2.11667 0.68974,0.55635 1.25896,-1.22514 2.75332,-1.67018 -0.91966,1.03826 -1.37548,1.62124 -0.76068,2.22415 0.25456,0.21088 2.19157,0.17911 2.57969,-0.31419 0.45031,-0.51115 0.82842,-1.09795 1.05833,-1.80248 0.15311,0.77879 0.46303,1.54702 0.46303,2.33991 0.0406,0.59017 -1.46466,1.00334 -2.96003,1.89343 0.7708,-0.0857 0.88877,-0.004 1.46348,0.10748 -1.03453,1.03844 0.2306,1.41358 -3.44786,2.56315 1.37966,0.37096 2.64484,-0.26028 3.67937,-0.22324 0.38319,1.26122 -3.14373,2.7994 -2.64584,4.89479 0.84319,-1.37218 2.37697,-2.29667 2.53008,-3.00136 0.23008,0.44504 0.68626,0.44126 0.68626,1.33118 1.18781,-1.48348 2.26077,-1.5228 3.56361,-3.34036 0.65117,2.41078 0.6137,4.82341 1.26504,5.78776 0.30655,-5.26628 2.3752,-5.26686 2.29857,-12.90671 -0.91949,-0.96401 -3.4441,-2.65141 -4.07624,-3.05924 z m -4.48965,0.61185 c -0.95806,0.35248 -2.02782,0.53839 -3.10058,0.83509 0.11487,0.11147 1.52559,0.30684 2.70371,0.22324 0.0576,0.44521 0.39776,0.55397 0.51263,0.55397 0.44079,-0.11113 0.70838,-0.2196 1.0914,-0.33073 -0.53629,-0.33374 -0.78556,-0.83665 -1.20716,-1.28157 z m 32.28744,1.18235 c -0.35957,0.004 -0.72519,0.0145 -1.09141,0.0413 -8.19823,0.75755 -12.29932,5.75021 -13.49375,8.34265 -1.77644,4.01253 -3.39285,10.17422 -1.46348,12.42714 1.10489,-1.99055 2.96182,-3.22099 4.22507,-4.86998 0.0914,-0.60614 -0.0969,-1.19257 1.9513,-5.03535 -0.97505,0.72372 -3.33513,3.27638 -4.87825,6.60631 0.40545,-4.43158 5.303,-8.6794 8.62376,-10.2278 4.72692,-1.94722 9.95929,-2.3643 14.30404,-0.47129 3.29288,1.29316 6.31606,5.47533 5.52317,9.44232 3.71907,-5.69789 -2.22274,-10.69407 -2.76159,-10.85618 0.55041,-0.38846 1.07573,-0.15821 1.62884,0 -2.56949,-2.96139 -7.17419,-5.45315 -12.5677,-5.39916 z m -35.82624,4.26641 c -0.173466,-0.002 -0.354108,0.005 -0.545703,0.0248 -2.725325,1.33446 -7.63066,4.05392 -7.110677,8.59069 -0.204256,1.89505 -0.968547,1.21175 -1.091406,3.71243 -0.135094,6.07361 5.433644,10.82975 10.798306,11.90625 -2.219612,-2.14195 -5.737676,-5.30633 -5.275129,-7.57369 1.004112,-5.31947 6.094339,-1.70128 5.928319,-4.80384 -5.449458,-3.88917 2.44414,-7.26881 0.33073,-6.63939 -1.62537,0.31471 -2.46534,0.32263 -3.902604,-1.09968 4.577554,-0.79272 3.720704,-1.88515 3.720704,-1.88515 l -1.44694,0.15709 c -0.0542,-0.62924 1.19283,-1.26391 2.92695,-2.05052 -2.22838,0.13769 -3.11829,-0.32787 -4.33255,-0.33899 z m 37.5543,2.00918 c -0.19099,0.009 -0.38025,0.0264 -0.56224,0.0496 -0.23009,0.2226 -1.26068,2.34135 -1.83555,2.78639 0.92,0 1.4336,0.11194 1.89342,0.22324 0.59391,-1.01974 1.18608,-2.04314 2.12494,-2.95175 -0.45983,-0.0974 -1.04762,-0.13529 -1.62057,-0.10749 z m -1.48828,0.0992 c -1.30999,0.20459 -9.82861,1.00674 -11.2448,9.16946 3.65773,-2.46499 6.3533,-1.90447 7.97884,-4.4483 2.90834,0.006 5.91989,0.14998 10.71563,2.87734 -2.98532,-2.77256 -4.25513,-4.30943 -9.67383,-4.40697 0.71795,-0.61021 1.84419,-1.85691 2.22416,-3.19153 z m -27.93008,3.62148 c -0.68974,0.55618 -2.34878,1.61951 -3.61322,3.84473 -0.34495,-0.66748 -0.002,-1.11892 -0.34726,-2.00918 -0.47887,0.85304 -1.87494,1.60279 -2.00918,2.45566 0.23008,0.55635 1.03022,1.00109 1.71979,1.2237 0.46,-0.66765 4.71235,-0.44648 4.59713,-0.44648 -0.45982,-1.27957 -0.69222,-2.6765 -0.34726,-5.06843 z m 25.061,1.5627 c -0.28735,0.44504 -0.57255,0.72459 -0.8599,1.05833 0.74735,0 2.25024,0.0448 2.93523,-0.11576 0.16143,-0.53034 0.26324,-0.49904 0.45475,-0.77721 -0.49806,-0.0743 -1.39954,-0.14667 -2.53008,-0.16536 z m 1.94303,1.66191 c -1.04674,0.0107 -1.93797,0.0805 -2.52181,0.12402 -5.66662,0.45371 -10.88819,5.55519 -12.27005,8.02019 0.7584,0.68175 0.8648,0.88929 1.29811,1.41386 1.62589,-1.99309 4.87647,-5.71521 9.59115,-6.29212 3.08846,-1.88808 9.84168,-2.51358 13.82448,0.23978 -2.19464,-3.06829 -6.78164,-3.5377 -9.92188,-3.50573 z m 3.68763,2.33991 c -2.18552,0.005 -4.64508,0.32649 -5.06842,0.76894 8.07418,-0.0523 11.82878,3.96755 13.49375,9.12813 0.88193,2.73297 1.72136,7.89921 -0.16537,13.29531 -1.74415,4.98895 -6.28032,7.41729 -4.95266,13.05554 0.70435,-3.27794 2.21471,-4.81908 4.38216,-6.52364 -0.43366,3.67132 -0.37307,6.55588 1.7942,10.69909 -0.81294,-12.53517 4.68878,-17.40898 2.92696,-29.58372 -0.75636,-5.38404 -5.09625,-9.33166 -9.26869,-10.45931 -0.61965,-0.26554 -1.83061,-0.3831 -3.14193,-0.38034 z m -32.53548,0.30592 c -1.70592,0.005 -1.5941,0.56551 -2.93522,0.38861 0,0.94396 -0.32533,1.64486 -0.97565,1.95957 -0.64998,0.31471 -1.45705,0.007 -3.001367,0.47956 -0.487696,0.15752 -2.097344,1.12453 -1.86862,3.14193 0.167381,1.47668 4.545687,6.4549 7.796937,8.02845 3.41371,1.10131 7.80808,-1.57683 8.4584,-3.1502 0.88024,-1.90729 1.01762,-4.97054 0.1571,-6.22598 -0.28599,-0.48005 -3.40508,-4.11616 -5.20072,-4.39043 -1.09557,-0.16746 -1.86222,-0.23328 -2.43086,-0.23151 z m 4.25814,0.25632 c 3.23766,2.42931 4.06707,3.96072 4.31602,4.72116 0.42142,1.29809 0.3855,2.37983 0.34726,3.23288 1.05356,1.16826 2.1075,3.33872 2.35645,4.72942 0.38319,3.44906 -1.42063,4.4461 -1.61231,5.00228 0.80462,-0.14835 1.95013,-1.41197 2.98483,-2.11667 0.0765,0.55618 -0.0775,1.11384 -0.11575,1.67019 0.55567,-0.35227 1.80656,-3.3737 2.01745,-4.0597 1.11116,-0.42653 1.10857,5.21108 0.80201,7.17682 0.0768,0.44521 -1.11424,2.44646 -1.6123,3.44785 0.65117,-0.0928 1.76458,-1.18502 2.64583,-2.61276 0,0.96435 0.11735,1.92746 0.34727,2.22415 0.45983,-0.74174 0.14755,-3.23556 1.14928,-3.11712 -0.47682,3.82834 0.14936,5.19769 0.62839,8.73952 0.47903,-1.05696 0.15833,-5.34091 0.75241,-7.17682 0.42142,-0.037 1.76475,1.92729 2.64583,2.22415 -0.84285,-1.72478 -2.37663,-2.67553 -2.53008,-4.84518 0.23009,-0.35227 1.71862,1.6329 2.75332,2.28203 0.61294,0.408 1.11336,0.15216 1.49655,-0.10749 -1.59003,-0.33374 -4.09792,-3.55885 -4.4235,-4.67155 -1.22604,-3.60521 -1.31428,-6.90096 -6.81302,-12.00547 -3.3906,-3.14725 -4.43828,-4.19986 -8.13594,-4.73769 z m 26.13587,0.99219 c 2.24867,0.81294 2.38347,1.9402 2.35645,2.75332 -1.21924,-1.41636 -2.60359,-1.25677 -3.98529,-1.25677 1.12442,0.47206 1.70709,1.38438 2.6541,2.6789 1.89794,1.8507 4.0097,3.83308 4.25814,6.29212 0.36807,3.87456 -0.67941,6.43366 -2.35644,7.78868 -1.81553,1.33581 -3.89923,1.9393 -8.04499,0.78548 2.33024,1.91442 3.25976,1.91992 5.03535,1.96784 1.78647,0.0525 4.71786,-0.63515 7.88789,-4.17546 0.4877,3.77668 -3.0894,5.51491 -2.92695,5.51491 0.16245,0.15735 5.52317,-0.31704 5.52317,-8.97103 0,-7.60535 -5.25359,-12.69607 -10.40143,-13.37799 z m -3.86953,0.10748 c -5.22274,-0.0942 -8.83629,3.71853 -10.83965,5.87045 0.32508,0.47206 0.65075,0.95007 0.97565,1.42213 0.43349,-0.36739 5.74078,-6.56177 13.24571,-4.17545 -1.24643,-1.25867 -2.00577,-1.72806 -2.92696,-1.72806 0.10842,-0.31454 1.19313,-0.62839 3.41478,-0.62839 -1.37671,-0.50644 -2.66428,-0.73894 -3.86953,-0.76068 z m -0.43821,3.39825 c -0.18803,0.004 -0.37885,0.0143 -0.57051,0.0331 -2.78735,0.28072 -6.28252,2.09941 -8.45013,4.24987 0.4877,0.7606 1.13823,1.99263 1.46347,2.91041 0.97557,-1.1013 2.58357,-1.40105 3.57188,-0.62838 0.42074,0.32864 0.71005,1.89239 -0.1571,2.52181 0.54208,0.36721 1.72925,0.0991 2.59623,-1.42214 0.0541,0.68176 0.27086,0.8967 0,2.05052 0.92118,-0.94412 0.86475,-2.05017 1.78593,-2.36471 0.054,0.7866 0.43619,3.46327 -1.29811,4.24987 2.27603,0 3.57732,-1.25651 4.39043,-1.41387 -0.54207,0.73444 -0.11154,1.15038 -1.62884,2.19935 1.46326,0.0525 1.95447,-0.99328 3.09232,-2.04225 0.59628,0.94413 0.37915,3.93404 -0.48783,5.03535 1.30047,-0.15718 5.80038,-2.41356 3.00964,-7.31738 0.65031,0.0522 1.13287,0.73134 1.62057,1.88516 0.91858,-3.25172 -3.10926,-10.07029 -8.93795,-9.94668 z m -17.2806,4.56406 c -0.34462,1.14974 -0.57724,2.18617 -1.49655,3.22461 1.43658,0.64913 2.29376,0.0756 2.81119,-0.16537 -0.0574,-0.686 -0.79721,-2.26194 -1.31464,-3.05924 z m -19.893363,0.77721 c 2.250543,5.94073 11.128183,9.48747 16.213993,8.84701 -2.64392,-2.55914 -4.71732,-1.94663 -8.85527,-5.50664 -1.60957,-0.22261 -5.56801,-1.62748 -7.358723,-3.34037 z m 31.766533,1.53789 c -0.95909,0.053 -1.35269,0.43764 -1.99264,0.94258 0.86698,5.13985 3.12174,5.89294 6.10195,6.39134 -2.98412,-1.81416 -4.40553,-4.10214 -5.04362,-5.68027 0.86698,0.18352 1.08561,-0.2616 2.03399,-0.47129 0.054,-0.57691 -0.13848,-1.15636 -0.65319,-1.18236 -0.16258,-0.007 -0.30947,-0.008 -0.44649,0 z m -10.31048,1.35599 c -1.16028,0.88041 -2.15324,0.48399 -3.62975,0.14056 -4.23804,2.21163 -5.54566,1.80688 -7.22643,1.87689 1.02977,0.47206 3.57022,1.97698 6.1681,1.5875 -0.43349,0.36705 -0.74887,0.56726 -1.18236,0.93431 1.3489,1.47975 2.48631,1.34062 4.15892,1.99264 2.11035,0.52712 5.5165,0.26129 6.06061,0.32246 -0.17265,-1.44643 0.29776,-1.054 -0.008,-5.14283 -0.7375,1.502 -0.79842,3.01633 -2.63757,3.79511 -0.16262,-0.41955 -0.0917,-0.77847 0.0331,-1.5875 -0.70452,0.47207 -1.00323,1.71758 -3.54707,1.7446 0.34513,-0.84557 0.68367,-1.51701 1.48828,-2.30684 -0.73579,-0.71064 -2.56372,0.0226 -4.50618,-1.13274 2.15929,0.12404 3.74682,-0.14568 5.1015,-0.35554 -0.0544,-0.73426 0.0114,-1.18992 -0.27286,-1.86862 z m -26.243357,4.31602 c -1.724271,0.0921 -1.140688,0.33334 -3.910873,1.16582 -3.273345,0.36348 -3.913809,1.04811 -3.662825,2.57969 1.817732,-0.71575 3.458183,-1.31809 5.308203,-1.11622 -0.842849,1.27957 -1.953527,2.03312 -1.876888,2.4226 0.03824,0.90844 0.33978,1.34104 1.240234,1.57096 -0.363987,-0.63044 1.596298,-3.52141 2.075326,-3.83646 -0.04809,-0.15769 0.856924,-0.0491 2.389518,-0.19017 -0.190662,2.33364 0.299736,3.80562 2.075325,3.96875 -0.723728,-1.57218 -1.402424,-2.42745 -1.132747,-3.8778 l 3.199805,0.97565 c 0.574698,0.13 0.118403,1.7718 0.46302,2.51354 0.747348,-0.38947 0.435179,-1.74228 1.182357,-1.68671 1.58731,0.44521 3.063652,1.61501 5.953122,2.21588 -1.18848,-1.50574 -1.6704,-2.60022 -1.71152,-3.57187 -8.683551,-1.15722 -9.557666,-3.24938 -11.592057,-3.13366 z m 11.914517,0.57877 c 0.23008,5.15498 3.21953,7.86641 3.67936,7.68119 1.16878,0.0554 1.53613,-1.11026 5.23379,-1.16582 -1.68603,-1.29809 -4.17554,-4.15386 -4.59713,-5.11804 -0.86223,-0.12982 -2.07448,-0.15498 -4.31602,-1.39733 z m 5.25859,1.53789 c 4.79592,6.16249 7.95615,6.67767 9.29349,8.68164 0.50469,0.8053 1.14723,1.42177 1.51309,1.54616 1.05662,0.0525 2.51641,0.0303 3.16673,-0.0744 0.81294,-1.04897 -0.0772,-1.78328 -0.23978,-2.59622 -0.0272,-1.31118 0.59367,-1.91796 0.32246,-2.9931 -0.75856,0.49823 -1.51387,1.15644 -2.6789,1.02526 0.16245,-1.25884 1.21933,-1.18029 0.97565,-2.43913 0.9482,-1.10131 0.70664,-1.70248 0.76068,-2.17454 -5.49976,0.65286 -7.54796,-0.88195 -8.57416,-0.76895 -0.76519,0.0771 -2.65015,0.26162 -4.53926,-0.20671 z m 35.7601,1.02526 c -3.08881,2.30764 -5.20436,2.72324 -8.78086,2.51355 -1.76098,1.91442 -3.19457,2.41253 -5.60586,2.59622 1.00241,0.78677 2.48961,0.47206 4.6302,0 -1.13801,1.88825 -3.57517,2.99284 -5.20071,3.1502 1.95095,2.04543 6.09394,-0.23815 7.06933,-1.33946 -0.46067,1.94042 -1.72993,7.50078 0.24805,10.2278 0.21649,-5.40188 0.92474,-8.28738 2.60449,-10.2278 -0.217,2.62252 -0.11102,2.25797 0.32246,3.62149 0,0 -0.0852,-4.32334 1.21543,-4.79558 -0.32524,2.36015 -0.0796,4.16556 0.57051,5.26687 0.16263,-3.98586 0.65054,-5.60882 1.46348,-7.2347 -0.59611,0.26219 -1.19017,-0.10408 -1.78594,-0.47129 0.92119,-0.26203 3.141,-2.25849 3.24942,-3.3073 z m -26.88829,8.55762 c -2.63985,6.33819 -5.18542,8.72117 -6.62285,10.13685 -0.71778,0.7013 -3.2299,0.0677 -4.52272,0.14056 -2.39175,0.11742 -2.29518,1.26736 -2.48874,2.14147 1.35825,-0.15684 1.72867,-0.91863 2.65411,-0.89297 1.27481,0.17622 1.92347,0.10861 2.88561,0.16537 0.7086,-0.20035 1.06021,-0.12526 1.5875,-0.19017 -0.0411,0.6425 -2.10174,1.65795 -3.1502,2.48874 -0.54615,0.85559 -0.0955,1.60636 0.17364,1.85208 0.57707,-0.4549 0.68709,-0.41784 1.31464,-0.62839 0.0267,-1.49045 1.42166,-1.53933 2.40606,-2.82773 1.22026,0.71115 2.18714,0.18032 2.91868,-0.41341 0.61345,0.32915 1.20859,2.0816 2.86081,3.25768 0.44589,-0.70996 0.26169,-0.94821 0.26458,-1.39733 -0.95993,-0.61175 -1.95091,-1.61736 -2.48873,-2.9683 -0.46782,-2.00295 0.50567,-3.11517 1.01699,-3.80338 0.99562,0.97335 1.44035,1.34869 2.98483,1.01699 -1.30404,-0.69518 -2.00012,-0.99667 -2.30684,-1.80247 0.57317,-0.7465 2.10184,-2.5534 4.31602,-4.59714 -1.05662,-0.17435 -2.06611,-0.10534 -2.53835,-0.3638 -0.50553,-0.2102 -0.86995,-0.88065 -1.26504,-1.31465 z"
           id="path21141"
           sodipodi:nodetypes="cccccccccccccccccccccccccccccccccccsccsscccccccccccccccccccccccccccccccccccccccccccccccccccccccccsccccsscccccccccccccccccccccccccccccccccccccccccccccccccccccccccccccccccccccccccccccscscccccsscccccccccccccccssccccccccccccccccccccccccccccccccccccccccccccccccccccscccccccccssccccccccccccccccccccccccccccccccccc" />
      </g>
    </g>
  </g>
</svg>
